<?xml version="1.0" encoding="utf-8"?>
<!-- Generator: Adobe Illustrator 24.2.0, SVG Export Plug-In . SVG Version: 6.00 Build 0)  -->
<svg version="1.1" id="Layer_1" xmlns="http://www.w3.org/2000/svg" xmlns:xlink="http://www.w3.org/1999/xlink" x="0px" y="0px"
	 viewBox="0 0 150 150" style="enable-background:new 0 0 150 150;" xml:space="preserve">
<style type="text/css">
	.st0{fill:#D0D0D0;}
	.st1{fill:#737D73;}
	.st2{fill:#079407;}
	.st3{fill:#079907;}
	.st4{fill:#C5C6C5;}
	.st5{fill:#DDDEDD;}
	.st6{fill:#141614;}
	.st7{fill:#B2B2B2;}
	.st8{fill:#E9E9E9;}
	.st9{fill:#0E960E;}
	.st10{fill:#121B12;}
	.st11{fill:#202220;}
	.st12{fill:#232323;}
	.st13{fill:#181818;}
	.st14{fill:#01EB01;}
	.st15{fill:#303230;}
	.st16{fill:#666A66;}
	.st17{fill:#00F200;}
	.st18{fill:#03AC03;}
	.st19{fill:#1F281F;}
	.st20{fill:#00FD00;}
	.st21{fill:#C7C7C7;}
	.st22{fill:#202520;}
	.st23{fill:#00BA00;}
	.st24{fill:#00BD00;}
	.st25{fill:#030403;}
	.st26{fill:#191919;}
	.st27{fill:#00BE00;}
	.st28{fill:#191A19;}
	.st29{fill:#AEAEAE;}
	.st30{fill:#00B300;}
	.st31{fill:#003495;}
</style>
<g>
	<path class="st0" d="M105.52,107.75c1.28-0.2,2.95,0.3,2.79,1.37c-0.81,5.48,3.55,9.88,2.71,15.5c-0.61,4.07-1.81,6.06-6.07,5.97
		c0,0,0,0,0,0c-10.4-0.58-15.92,0.23-15.92,0.23c-3.26,0.37-8.19,1.35-14.2,4.25c-2.58,1.17-5.49,2.31-8.71,3.3
		c-1.47,0.45-2.89,0.83-4.26,1.16c-0.07-0.26-0.11-0.65,0.06-1.02c0.12-0.29,0.36-0.51,0.7-0.59c8.79-2.16,16.01-8.05,24.72-10.37
		c4.46-0.7,8.97-0.13,13.44-0.41c1.96-0.12,5.04,1.08,5.37-1.97c0.32-2.99,1.95-6.77-2.17-8.86c-0.44-0.23-0.79-0.6-1.14-0.96
		C101.03,111.86,104.27,110.15,105.52,107.75z"/>
	<path class="st1" d="M86.93,128.7c-8.46,3.36-16.19,8.43-25.07,10.83c-2.98,0.83-7.24,1.66-12.36,1.49
		c-3.84-0.13-7.1-0.79-9.61-1.49c-0.52-0.18-1.74-0.69-2.55-1.95c-0.29-0.44-0.45-0.87-0.56-1.23c3.2-1.49,6.05,0.78,9.13,0.93
		c10.56,0.52,20.31-1.79,29.47-6.98c1.86-1.05,3.63-2.33,5.76-2.86C83.21,127.24,85.32,126.82,86.93,128.7z"/>
	<path class="st2" d="M80.74,128.67c-8.92,5.85-18.52,9.6-29.34,10.03c-5.09,0.2-9.88-0.76-14.62-2.36
		c-4.13-2.55-4.76-6.75-4.24-10.86c0.92-7.31,1.79-14.85,8.52-19.74c0.82,0.17,1.26,0.47,1.48,0.84c0.59,1.03-0.07,2.52-0.29,3.05
		c-1.88,4.39-0.06,11.16,1.48,14.53c0.92,2.02,1.58,3.47,3.18,4.46c3.14,1.95,7.32,0.6,9.93-0.25c2.72-0.88,4.55-1.98,5.79-2.71
		c3.26-1.92,13.84-4.59,22.68-10.64c1.8-1.23,3.89-1.4,5.96-1.69c0.63-0.24,1.26-0.49,1.92-0.65c4.11-1.65,8.23-3.3,12.34-4.96
		c1.11,3.36-2.17,4.46-3.41,6.61c-0.65,1.48-2.21,2.02-3.24,3.11c-4.55,3.3-8.96,6.77-13.77,9.7
		C83.71,127.83,82,127.58,80.74,128.67z"/>
	<path class="st3" d="M73.93,14.81c1.78-0.86,5.55-2.39,10.53-2.2c5.02,0.19,8.68,2.03,10.39,3.04c0.31,0.29,0.63,0.59,0.94,0.88
		c1.4,2.77,3.66,4.99,4.87,7.9c1.28,3.1,1.58,5.98-0.86,8.66c-1.48,0.94-3.16,0.86-4.81,0.9c-2.11-0.05-4.23,0.1-6.31-0.35
		c-2.63-0.89-5.38-1.89-7.32-3.78c-3.28-3.19-6.09-3.11-9.1,0.08c-3.56,3.14-4.83,7.25-5.1,11.81c-0.13,2.26,0.39,4.61-0.92,6.71
		c-0.38,0.38-0.84,0.51-1.37,0.37c-3.58-8.51,0.86-21.93,8.69-26.34c2.46-1.38,4.57-1.53,6.65,0.82c2.82,3.18,6.48,5.18,10.47,6.52
		c1.95,0.65,4.08,0.72,5.56-1.01c1.65-1.93,0.35-3.79-0.67-5.48c-4.76-7.88-12.87-9.91-21.32-5.32c-3.08,1.68-5.74,3.96-8.48,6.12
		c-2.94,1.57-3.15,6.11-7.12,6.56c-0.3-0.72-0.39-1.41,0.22-2.03c1.24-2.17,3.28-5.19,6.48-8.13
		C68.53,17.64,71.67,15.87,73.93,14.81z"/>
	<path class="st4" d="M102.78,26.7c2.73,2.62,0.2,5.63,0.48,8.46c1.39,14.18,4.28,28.16,3.92,42.62
		c-0.18,7.32-4.08,10.07-8.64,13.25c-2.13,1.49-4.46,0.43-6.34-1.25c0.28-0.51,0.69-0.9,1.2-1.17c8.11-3.26,9.13-4.58,9-13.02
		c-0.14-9.07,0.78-18.18-0.96-27.19c0.27-3.33-0.7-6.53-0.94-9.8C100.21,34.47,100.62,30.4,102.78,26.7z"/>
	<path class="st5" d="M84.65,71.63c-4.12-0.68-5.37,1.12-4.33,4.97c1.56,5.81,4.02,11.47,1.26,17.7c-1.02,2.29-2.84,3.98-3.72,6.28
		c-0.7,0.88-1.25,1.93-2.17,2.59c-3.03,2.19-4.75,4.98-4.28,8.85c-2.69,0.39-4.76-0.81-5.52-3.21c-0.87-2.74,1.58-4.2,3.36-5.55
		c6.72-5.08,10.96-11.12,8.53-20.06c-0.91-4.17-3.2-8.18-1.51-12.66c1-1.63,2.57-2.52,4.29-3.11
		C83.97,66.27,85.22,67.59,84.65,71.63z"/>
	<path class="st6" d="M84.65,71.63c0.19-3.7-1.41-4.47-4.5-2.73c-1.3,0.73-2.58,1.51-3.86,2.26c-0.08,0.88-0.31,1.75-1.44,1.42
		c-1.07-0.32-1.63-1.23-1.4-2.32c0.29-1.4,1.47-2.15,2.54-2.96c0.41-0.29,0.81-0.57,1.26-0.78c7.23-3.45,10.4-1.59,10.89,6.51
		c0.19,3.12,0.2,6.26-0.1,9.39c-0.17,1.12-0.54,2.14-1.43,2.91c-0.24,0.12-0.49,0.24-0.74,0.36C83.96,81.12,85.38,76.28,84.65,71.63
		z"/>
	<path class="st7" d="M102.78,26.7c-2.01,7.35-0.19,14.71-0.05,22.07c-0.61,0.2-1.16,0.11-1.66-0.29
		c-2.8-5.18-1.53-10.81-1.76-16.27c1.53-1.59,1.89-3.02,1.99-3.79c0.42-3.01-1.67-5.99-2.99-7.87c-0.18-0.26-0.83-1.17-1.63-2.48
		c-0.4-0.66-0.71-1.21-0.89-1.54C99.81,18.76,100.9,23,102.78,26.7z"/>
	<path class="st8" d="M71.85,111.47c-1.79-1.95-2.37-3.73,0.19-5.66c2.07-1.56,3.88-3.47,5.81-5.23c-0.12,2.47-2.33,3.46-3.62,5.1
		c-0.85,1.09-2.71,1.79-1.84,3.63c0.67,1.41,2.04,1.89,3.58,2.29c5.68,1.47,11.48,0.67,17.2,1.11c-0.55,0.37-1.09,0.75-1.64,1.12
		c-5.24,0.55-10.45,1.97-15.75,0.18C74.21,113.48,72.48,113.38,71.85,111.47z"/>
	<path class="st5" d="M92.2,89.79c-2.08-1.42-4.93-1.66-6.34-4.12l-0.19-0.18l0.1-0.24c4.87-0.82,5.94-0.16,7.01,4.35
		C92.57,89.61,92.38,89.67,92.2,89.79z"/>
	<path class="st9" d="M75.53,69.03c-0.8,0.64-2.14,1.06-1.02,2.48c0.82,1.04,1.25,0.03,1.79-0.35c0.88,4.01,1.77,8.01,2.66,12.01
		c1.56,8.48-1.97,14.82-8.49,19.78c-1.33,1.01-2.51,2.15-3.75,3.23c-2.72,2.35-4.92,1.88-5.71-1.67c-0.98-4.45-3.17-9.35-1.02-11.26
		c0.19-0.17,0.11-0.04,2.67-1.69c0.75-0.49,1.27-0.82,1.87-1.39c0,0,0.75-0.71,1.27-1.46c0.94-1.37,0.97-4.13-0.01-7.16
		c-1.18-1.62-2.11-2.98-2.73-3.91c-6.49-9.73-6.93-13.88-7.24-15.45c-0.19-0.94,0.05-1.89-0.06-2.83
		c-3.35-10.66-1.77-20.82,3.14-30.63c0,0.66,0,1.31,0,1.97c1.53,1.72,0.43,3.57,0.27,5.37c-3.78,10.75-1.67,20.87,3.25,30.72
		c1.92,3.85,4,7.64,5.64,11.63c1.07,2.81,1.29,5.72,1.06,8.69c-0.18,2.26-1.43,3.98-2.95,5.5c-1.36,1.36-2.09,2.9-1.98,4.82
		c0.23,1.69-0.82,3.58,0.86,5c3.42-1.94,5.84-4.92,8.17-7.9c3.5-4.47,3.59-9.4,1.6-14.59c-2.38-6.2-5.21-12.22-7.55-18.43
		c-0.64-1.71-1.42-3.37-1.74-5.19c-0.33-2.55-1.71-5.16,0.33-7.6c0.04-5.28-0.61-10.64,2.23-15.53c1-1.71,1.68-3.65,3.78-4.39
		c1.04,1.3,0.37,2.56-0.31,3.63c-3.92,6.11-3.92,12.67-2.45,19.44c0.01,1.96,0.49,3.77,1.63,5.39
		C72.49,61.07,74.09,65.02,75.53,69.03z"/>
	<path class="st10" d="M43.89,124.65c-2.42-0.84-3-9.21-3-9.21c-0.13-3.2,0.27-6.48,0.16-9.69c0.33-3.38,0.65-6.77,0.98-10.15
		c1.07-0.11,1.44,0.65,1.79,1.44c0.89,4.75,0.51,9.57,0.38,14.34c-0.13,4.66,0.68,8.85,3.77,12.44c0.33,0.87,0.15,1.6-0.63,2.14
		c-0.16-0.08-0.39-0.19-0.67-0.31c-0.49-0.21-0.86-0.34-1.27-0.48C44.54,124.88,43.92,124.66,43.89,124.65z"/>
	<path class="st11" d="M55.74,59.32c0.83,0.56,1.04,1.4,1.03,2.33c-0.68,1.13-1.06,2.46-2.1,3.36c-4.79,4.18-6.75,9.73-7.66,15.8
		c-0.25,1.64-0.63,3.27-1.72,4.62c-2.17,1.12-1.59-1.11-2.24-1.84C44.41,74.01,48.15,65.66,55.74,59.32z"/>
	<path class="st12" d="M43.05,83.6c0.56,0.66,1.12,1.32,1.69,1.98c1.81,4.27,1.14,8.35-1.8,11.09c-0.3-0.35-0.59-0.71-0.89-1.06
		C42.37,91.61,42.71,87.6,43.05,83.6z"/>
	<path class="st13" d="M80.74,128.67c1.15-1.3,2.65-1.98,4.26-2.48c1.93-0.17,3.69-1.21,5.67-1.07c2.79,0.07,5.6,0.07,8.4,0
		c5.04-0.11,5.42-0.61,4.82-5.94c-1.19-2.17-4.09-0.74-5.41-2.59c0.73-1.53,2.05-2.1,3.63-2.24c1.66,1.29,4.83-0.14,5.52,2.4
		c0.91,3.36,0.71,6.94,0.08,10.38c-0.32,1.76-2.09,1.29-3.34,1.32c-5.81,0.11-11.63,0.17-17.44,0.24
		C84.87,128.69,82.8,128.68,80.74,128.67z"/>
	<path class="st7" d="M42.93,96.67c1.86-3.49,1.39-7.36,1.8-11.09c1.47-7.27,2.18-14.82,7.96-20.42c1.29-1.25,2.25-2.88,4.08-3.51
		c1.79,5.63,4.56,10.8,7.51,15.88c0.23,1.19,0.18,2.34-0.62,3.32c-6.08,7.43-3.92,15.91-2.12,23.82c0.97,4.27,5.82,6.42,10.16,8.05
		c4.69,1.75,9.79,1.11,14.46,2.75c-6.94,5.32-15.06,8.21-23.15,11.16c-2.88,0.87-5.87,0.93-8.83,1.14
		c-2.61,0.18-4.95-0.52-6.36-3.02c-3.85-2.54-5.17-6.05-4.91-10.66C43.23,108.3,42.95,102.48,42.93,96.67z"/>
	<path class="st14" d="M83.77,124.53c-9.67,7.46-20.54,11.79-32.72,12.95c-7.53,0.72-15.32-2.63-16.54-7.83
		c-1.69-7.2,1.45-13.34,4.99-19.48c-2.73,6.1,1.27,11.01,2.6,16.28c0.77,3.04,3.7,4,6.72,4.14c0.79,0.76,1.93,0.22,2.77,0.74
		c4.19,2.56,5.58,2.27,8.36-1.73c5.95-2.33,11.9-4.66,17.86-6.99C79.53,124.08,82.65,121.2,83.77,124.53z"/>
	<path class="st15" d="M86.16,115.47c-8.29-0.19-16.55-0.36-23.08-6.72c-1.76-1.71-2.89-3.63-3.1-5.99c-0.41-4.61-0.66-9.23-1-13.84
		c-0.35-4.78,2.96-7.85,5.3-11.38c1.21,1.04,1.67,2.39,1.6,3.95c-0.95,0.33-2.32,0.98-3.36,2.28c-1.32,1.65-1.15,3.13-1.25,8.63
		c-0.06,2.9,0.41,7.43,0.8,11.84c0.12,1.37,1.1,3.83,3.28,2.14c7.62-5.87,14.84-12.09,13.6-23.2c2.9,6.25-0.22,11.27-3.59,16.05
		c-1.4,1.99-3.67,3.34-5.42,5.1c-1.24,1.24-3.72,2.17-3.24,3.98c0.56,2.08,2.83,3.07,5.16,3.17c6.38,2.33,13.02,2.44,19.69,2.36
		C89.75,114.37,87.95,114.92,86.16,115.47z"/>
	<path class="st16" d="M98.48,116.6c2.39,0.47,5.07-1.09,7.24,1.02c-5.62,1.75-9.72,6.06-14.77,8.78c-1.98-0.06-3.96-0.13-5.94-0.19
		C89.5,123,93.99,119.8,98.48,116.6z"/>
	<path class="st17" d="M85.85,118.56c4.65-2.31,9.3-4.61,13.95-6.92c-3.44,4.18-7.51,7.36-11.97,10.06
		C85.67,121.6,84.78,120.7,85.85,118.56z"/>
	<path class="st18" d="M59.96,129.59c0.77,1.89,1.79,3.59-1.68,4.07c-3.94,0.55-3.9,0.84-9.46-3.07
		C52.55,130.42,56.33,130.9,59.96,129.59z"/>
	<path class="st18" d="M85.85,118.56c-0.06,1.5,0.74,2.46,1.98,3.14c-0.85,1.66-2.55,2.11-4.06,2.82c-1.51-2.12-5.14,2.33-5.96-1.92
		C79.95,120.18,83.16,119.88,85.85,118.56z"/>
	<path class="st19" d="M47.82,124.74c4.83,2.53,10.13,1.23,15.19,1.89c-0.68,0.47-1.74,1.09-3.14,1.5c-1.29,0.37-2.29,0.4-3.46,0.41
		c0,0-3.29,0.05-7.15-1.29c-0.45-0.16-0.94-0.36-1.48-0.7c-0.49-0.31-0.86-0.64-1.11-0.88C47.06,125.35,47.44,125.05,47.82,124.74z"
		/>
	<path class="st20" d="M66.8,56.71c3.11,7.81,6.16,15.64,9.35,23.42c1.96,4.77,1.87,9.31-0.94,13.67
		c-2.88,4.47-6.43,8.26-11.25,10.71c-1.25-1.73-0.41-2.96,0.91-4.15c0.82-0.74,1.94-1.64,1.12-2.84c-0.81-1.17-2.04,0.7-3.08-0.05
		c-1.21-4.74,4.54-5.95,4.99-9.85c0.78-0.79,0.01-2.33,0.8-2.73c4.91-2.53,1.93-6.11,1.74-9.42c-2.13,0.22-1.07,3.51-3.51,2.99
		c-3.28-6.34-6.82-12.53-9.11-19.37c-2.64-7.88-2.55-15.62,0.09-23.42c1.19-1.98,3.65-2.36,5.05-4.36c1.72-2.47,2.03-4.93,1.88-7.68
		c5.58-5.88,12.29-9.28,20.51-9.69c4.56-0.22,14.51,9.88,13.3,14.16c-1.11,3.93-4.68,4.05-7.8,3.21c-4.18-1.14-8.46-3.06-10.94-6.55
		c-2.79-3.93-5.1-2.35-7.15-0.24c-4.58,4.7-8.16,10.05-7.97,17.08c0.06,2.32,0.09,4.65,0.13,6.98c1.71,5.41-2.55,2.17-4.48,2.98
		C61.57,54.58,64.1,55.73,66.8,56.71z"/>
	<path class="st21" d="M67.9,52.37c-2.02-8.44-0.88-16.34,3.95-23.64c3.21-3.6,6.24-3.9,9.77-0.12c1.6,1.72,4.17,2.54,6.29,3.77
		c0.61,0.88,0.87,1.82,0.4,2.85c-0.11,0.12-0.31,0.32-0.61,0.42c-1.34,0.44-2.83-1.71-6.11-4.39c-3.05-2.49-3.99-2.44-4.37-2.39
		c-1.25,0.18-2.09,1.24-3.35,2.82c-1.32,1.66-1.99,3.19-2.31,3.81c0,0-2.49,5.87-1.74,12.45c0.1,0.86,0.28,1.94,1.12,2.77
		c1.04,1.02,2.5,1.09,3.15,1.08c0.02,0.11,0.06,0.51-0.18,0.91c-0.2,0.33-0.48,0.48-0.59,0.54C71.34,54.05,69.45,54.19,67.9,52.37z"
		/>
	<path class="st22" d="M87.69,35.67c0.07-1.09,0.14-2.18,0.21-3.27c2.34,0.18,4.68,0.36,7.02,0.54c1.01,1.05,4.13-1.39,3.6,2.19
		c-1,0.66-2.15,0.86-3.3,0.87c-2.98,0.04-4.03,1.7-3.99,4.45c0.03,1.65,0.03,3.3-0.06,4.95c-0.31,5.36-1.99,7.34-7.48,8.88
		c-3.3-0.88-7.05,0.9-10.04-1.74c0.22-0.19,0.37-0.42,0.45-0.7c0.24,0,0.64-0.01,1.13-0.01c5.97-0.09,7.88-0.5,9.28-0.96
		c1.81-0.59,2.33-1.11,2.59-1.42c0.46-0.56,0.78-1.31,0.91-3.42c0.13-2.17-0.09-3.55-0.22-5.3C87.7,39.52,87.62,37.79,87.69,35.67z"
		/>
	<path class="st23" d="M64.83,23.64c2.99,4.64-0.7,11.05-6.94,12.04c0.33-1.67,0.66-3.35,0.98-5.02
		C61.22,28.62,61.83,25.12,64.83,23.64z"/>
	<path class="st24" d="M66.8,56.71c-2.45,0.62-8.88-3.1-8.7-5.24c0.25-2.89,2.7-2.14,4.06-1.46c2.01,1.01,2.92,1.18,2.77-1.43
		c0.3,0.03,0.61,0.05,0.91,0.08C66.16,51.34,66.48,54.03,66.8,56.71z"/>
	<path class="st25" d="M98.58,34.98c-0.36-2.21-2.77-0.77-3.65-2.05c1.46-0.24,2.93-0.48,4.38-0.72c1.79,3.21,1.11,6.76,1.33,10.18
		c0.14,2.13-0.25,4.34,1.17,6.22c0.2,1.35-0.68,1.38-1.63,1.32C95.81,45.36,96.95,40.2,98.58,34.98z"/>
	<path class="st26" d="M100.93,49.58c0.29-0.32,0.59-0.65,0.88-0.97c0.31,0.03,0.62,0.09,0.92,0.16
		c2.25,11.28,0.87,22.68,1.06,34.03c0.04,2.38-7.65,6.86-11.01,6.81c-1.64-2.57-3.83-4.26-7.01-4.35c0.34-0.54,0.69-1.09,1.03-1.63
		c1.56-1.35,3.04-0.68,4.58,0.09c4.84,2.42,8.83-0.1,8.98-5.94c0.2-7.78,0.08-15.58,0.04-23.37
		C100.41,52.79,99.88,51.1,100.93,49.58z"/>
	<path class="st7" d="M100.93,49.58c1.72,10.58,0.76,21.23,0.7,31.84c-0.02,3.43-4.68,3.82-6.73,6.29c-1.14,1.38-2.14-1.3-3.07-2.25
		c-1.41-1.45-3.21-1.59-5.02-1.84c-0.05-3.58-0.02-7.17-0.16-10.75c-0.3-7.38-1.98-8.39-8.54-5.25c-0.88,0.42-1.72,0.93-2.58,1.4
		c-3.99-2.69-3.31-7.84-5.92-11.26c-0.85-2.69,0.29-4.01,2.95-4.34c3.74-0.46,7.48-0.46,11.22-0.02c4.55-1.13,6.63-3.99,6.12-8.69
		c-0.05-0.49-0.02-0.99-0.02-1.49c-0.07-8.71-0.07-8.71,8.7-8.24c0.08,3.29,0.19,6.58,0.21,9.87
		C98.8,46.78,99.32,48.41,100.93,49.58z"/>
	<path class="st24" d="M66.91,78.47c2.02-1.37-0.31-5.97,3.4-5.52c3.04,0.37,1.36,3.89,1.96,5.9c0.8,2.71,2.62,6.69-3.14,6.8
		c-0.42,0.01-0.82,1.29-1.23,1.98C67.98,84.53,67.73,81.47,66.91,78.47z"/>
	<path class="st27" d="M62.9,97.48c1.34-0.77,1.55-3.13,3.7-2.72c0.93,0.18,1.23,0.99,1.25,1.87c0.04,1.97,0.32,4.13-2.19,4.86
		c-1.67,0.49-1.85,1.62-1.71,3.03C61.86,102.43,63.22,99.83,62.9,97.48z"/>
	<path class="st28" d="M83.77,53.41c-3.41,0.18-6.84,0.19-10.22,0.59c-2.05,0.25-3.56,1.46-3.56,1.46c-0.55,0.31-0.98,0.6-1.28,0.81
		c-0.15-0.31-0.3-0.66-0.44-1.05c-0.25-0.71-0.4-1.37-0.48-1.92c0.8-0.29,1.69-0.57,2.66-0.81c1.32-0.33,2.55-0.54,3.64-0.66
		c1.54,0.25,3.09,0.5,4.64,0.75C80.42,52.85,82.1,53.13,83.77,53.41z"/>
	<path class="st29" d="M90.95,126.39c4.2-4.15,7.89-9.15,14.77-8.78c0.87,8.89,0.87,8.9-7.87,8.88
		C95.55,126.49,93.25,126.43,90.95,126.39z"/>
	<path class="st30" d="M39.04,124.8c1.13,1.7,1.54,3.85,1.74,6.03c0.08,0.88-0.55,1.63-1.55,1.18c-2.33-1.07-2.53-3.16-2.32-5.37
		C37.01,125.6,37.29,124.71,39.04,124.8z"/>
	<path class="st31" d="M88.36,20.05c1.81,0.64,3.31,1.57,3.01,4.33c-1.29-1.12-2.59-2.23-3.88-3.35
		C87.78,20.71,88.07,20.38,88.36,20.05z"/>
	<path class="st1" d="M39.89,139.53"/>
	<path class="st28" d="M73.81,57.66"/>
	<path class="st21" d="M72.74,50.04"/>
</g>
</svg>
